<?xml version="1.0" encoding="utf-8"?>
<!-- Generator: Adobe Illustrator 24.1.2, SVG Export Plug-In . SVG Version: 6.00 Build 0)  -->
<svg version="1.1" id="Layer_1" xmlns="http://www.w3.org/2000/svg" xmlns:xlink="http://www.w3.org/1999/xlink" x="0px" y="0px"
	 viewBox="0 0 108 108" style="enable-background:new 0 0 108 108;" xml:space="preserve">
<style type="text/css">
	.st0{fill:#CAE6EA;}
	.st1{fill:#9F8B97;}
	.st2{fill:#D6AF92;}
	.st3{fill:#FFFFFF;}
</style>
<path class="st0" d="M108,108H0V0h108V108z"/>
<path class="st1" d="M108,108H0V38.4h108V108z"/>
<path class="st2" d="M33.5,108V38.4h40.9V108H33.5z"/>
<path class="st3" d="M61,53.4l-11,11l-3.1-3.1c-0.9-0.9-2.3-0.9-3.1,0l-1.5,1.5c-0.9,0.9-0.9,2.3,0,3.1l6.2,6.2
	c0.9,0.9,2.3,0.9,3.1,0L65.7,58c0.9-0.9,0.9-2.3,0-3.1l-1.6-1.5C63.3,52.6,61.9,52.6,61,53.4z"/>
</svg>
